<?xml version="1.0" standalone="no"?>
<!DOCTYPE svg PUBLIC "-//W3C//DTD SVG 20010904//EN"
 "http://www.w3.org/TR/2001/REC-SVG-20010904/DTD/svg10.dtd">
<svg version="1.0" xmlns="http://www.w3.org/2000/svg"
 width="2051.000000pt" height="2051.000000pt" viewBox="0 0 2051.000000 2051.000000"
 preserveAspectRatio="xMidYMid meet">
<metadata>
Created by potrace 1.11, written by Peter Selinger 2001-2013
</metadata>
<g transform="translate(0.000000,2051.000000) scale(0.100000,-0.100000)"
fill="#000000" stroke="none">
<path d="M9868 17325 c-2 -1 -61 -5 -133 -9 -174 -9 -345 -22 -410 -31 -16 -3
-50 -7 -75 -9 -25 -3 -58 -7 -75 -9 -16 -3 -52 -8 -78 -12 -27 -4 -58 -8 -70
-11 -12 -2 -39 -6 -62 -10 -88 -12 -313 -57 -435 -85 -47 -11 -98 -22 -115
-25 -63 -12 -478 -135 -620 -184 -700 -242 -1361 -595 -1965 -1049 -101 -76
-302 -237 -356 -286 -6 -5 -47 -41 -90 -80 -268 -238 -561 -543 -764 -794 -19
-24 -40 -48 -45 -55 -6 -6 -26 -31 -45 -56 -19 -25 -37 -47 -40 -50 -3 -3 -45
-58 -92 -122 -406 -547 -722 -1130 -960 -1768 -62 -165 -186 -555 -203 -635
-1 -5 -7 -28 -13 -50 -6 -22 -13 -51 -16 -65 -2 -14 -13 -61 -24 -105 -26 -99
-88 -421 -97 -494 -3 -30 -8 -57 -9 -60 -2 -3 -7 -35 -11 -71 -4 -36 -8 -67
-10 -70 -1 -3 -6 -36 -9 -75 -4 -38 -9 -86 -11 -105 -26 -225 -38 -454 -38
-735 0 -194 9 -475 18 -549 2 -17 7 -67 10 -111 6 -76 10 -117 20 -195 26
-202 33 -251 41 -293 2 -12 6 -39 9 -62 52 -361 252 -1084 384 -1390 5 -11 35
-83 66 -160 65 -159 177 -398 263 -560 109 -206 144 -270 155 -284 12 -14 31
-46 44 -71 4 -8 34 -58 67 -110 172 -275 365 -541 580 -800 69 -83 91 -108
205 -235 59 -64 398 -403 472 -470 401 -367 915 -731 1394 -990 530 -286 1137
-521 1685 -653 47 -12 96 -23 110 -26 14 -3 34 -7 45 -10 32 -7 267 -55 300
-60 17 -3 75 -13 130 -22 98 -15 115 -18 205 -29 25 -3 56 -7 70 -10 26 -4 77
-9 210 -20 41 -4 91 -8 110 -11 200 -22 810 -22 1070 1 263 23 369 34 390 40
8 2 38 6 65 10 84 10 338 53 415 69 14 3 70 15 125 27 98 21 198 46 381 94
440 117 1027 353 1464 590 154 84 364 207 368 217 2 4 8 8 14 8 13 0 383 246
398 266 7 8 17 14 23 14 6 0 17 7 26 16 9 8 59 48 111 87 106 80 234 182 295
236 23 20 72 63 110 96 327 284 680 667 973 1055 107 141 361 513 395 578 8
15 55 97 104 182 95 164 226 419 300 585 25 55 51 114 58 130 114 253 301 809
359 1065 3 14 19 84 36 155 16 72 32 141 35 155 2 14 9 50 15 80 6 30 13 73
16 95 3 22 7 46 10 53 2 7 11 61 19 120 9 59 18 118 20 132 2 14 7 52 11 85 3
33 8 69 10 79 2 10 6 55 9 100 4 45 8 95 10 111 19 150 26 718 12 980 -8 153
-10 168 -22 290 -19 185 -26 239 -31 263 -2 12 -7 44 -10 70 -3 26 -7 58 -9
72 -7 46 -35 205 -40 230 -3 14 -7 37 -10 53 -22 119 -84 379 -125 523 -17 60
-33 116 -35 124 -51 198 -231 680 -341 915 -21 44 -38 82 -39 85 -8 34 -226
447 -304 574 -22 37 -41 70 -41 72 0 10 -188 296 -295 449 -310 443 -739 913
-1185 1297 -130 112 -390 315 -505 394 -278 191 -538 353 -715 445 -47 24 -87
46 -90 49 -5 6 -337 170 -344 170 -2 0 -42 18 -88 39 -229 107 -564 228 -958
345 -68 21 -280 74 -319 81 -19 3 -37 8 -41 10 -3 2 -19 6 -35 9 -16 3 -51 10
-79 16 -157 32 -258 50 -401 70 -44 6 -91 13 -105 15 -14 2 -47 7 -75 10 -27
3 -66 8 -85 10 -61 8 -133 15 -215 21 -44 3 -102 7 -130 9 -61 5 -692 14 -697
10z"/>
</g>
</svg>
